<?xml version="1.0" encoding="UTF-8" standalone="no"?>
<svg
   xmlns:dc="http://purl.org/dc/elements/1.1/"
   xmlns:cc="http://creativecommons.org/ns#"
   xmlns:rdf="http://www.w3.org/1999/02/22-rdf-syntax-ns#"
   xmlns:svg="http://www.w3.org/2000/svg"
   xmlns="http://www.w3.org/2000/svg"
   xmlns:sodipodi="http://sodipodi.sourceforge.net/DTD/sodipodi-0.dtd"
   xmlns:inkscape="http://www.inkscape.org/namespaces/inkscape"
   width="23.657621mm"
   height="22.813345mm"
   viewBox="0 0 23.657621 22.813345"
   version="1.1"
   id="svg8"
   inkscape:version="1.0.1 (1.0.1+r75)"
   sodipodi:docname="logoBlanco.svg">
  <defs
     id="defs2" />
  <sodipodi:namedview
     id="base"
     pagecolor="#ffffff"
     bordercolor="#666666"
     borderopacity="1.0"
     inkscape:pageopacity="0.0"
     inkscape:pageshadow="2"
     inkscape:zoom="3.2133191"
     inkscape:cx="27.488708"
     inkscape:cy="38.216194"
     inkscape:document-units="mm"
     inkscape:current-layer="layer1"
     inkscape:document-rotation="0"
     showgrid="false"
     inkscape:window-width="1366"
     inkscape:window-height="711"
     inkscape:window-x="0"
     inkscape:window-y="27"
     inkscape:window-maximized="1"
     fit-margin-top="0"
     fit-margin-left="0"
     fit-margin-right="0"
     fit-margin-bottom="0" />
  <metadata
     id="metadata5">
    <rdf:RDF>
      <cc:Work
         rdf:about="">
        <dc:format>image/svg+xml</dc:format>
        <dc:type
           rdf:resource="http://purl.org/dc/dcmitype/StillImage" />
        <dc:title></dc:title>
      </cc:Work>
    </rdf:RDF>
  </metadata>
  <g
     inkscape:label="Capa 1"
     inkscape:groupmode="layer"
     id="layer1"
     transform="translate(-38.280559,-155.27911)">
    <path
       style="fill:#ffffff;stroke-width:0.264583"
       d="m 46.466645,177.76684 c -2.01514,-0.68631 -3.09769,-1.24906 -3.76863,-1.95908 -1.51825,-1.60666 -2.99035,-3.88199 -3.42646,-5.29604 -0.25488,-0.82641 -0.58572,-1.58822 -0.73521,-1.6929 -0.5175,-0.3624 -0.20105,-3.99968 0.51304,-5.89685 0.78975,-2.09815 0.77592,-2.0065 0.27351,-1.81371 -0.60435,0.23191 -0.47517,-0.29985 0.29529,-1.21548 1.01573,-1.20713 3.69063,-3.02937 5.65783,-3.85431 1.55281,-0.65118 2.05375,-0.72443 5.15938,-0.75443 2.84302,-0.0275 3.61865,0.0515 4.47205,0.45544 0.70402,0.3332 0.92596,0.55448 0.69766,0.69557 -0.24095,0.14892 -0.25038,0.24742 -0.0337,0.3514 0.18484,0.0887 0.17085,0.11382 -0.0362,0.0651 -0.18554,-0.0437 -0.31537,-0.18995 -0.28851,-0.32509 0.0268,-0.13514 -0.3601,-0.2573 -0.8599,-0.27147 -0.4998,-0.0142 -0.90873,0.02 -0.90873,0.0759 0,0.0559 0.62508,0.4182 1.38907,0.8051 0.76398,0.3869 1.75748,0.98422 2.20778,1.32738 1.08106,0.82383 1.41907,0.79548 0.62269,-0.0522 -0.56164,-0.59784 -0.57464,-0.65515 -0.11227,-0.49485 0.92117,0.31937 3.17836,2.89003 3.67156,4.18144 0.51559,1.35006 0.89467,4.39789 0.54698,4.39789 -0.11789,0 -0.42646,-0.19196 -0.68571,-0.42658 -0.43853,-0.39686 -0.48025,-0.38304 -0.59906,0.19844 -0.0702,0.34376 -0.19076,1.17676 -0.26781,1.85111 -0.0771,0.67435 -0.33317,1.74592 -0.56914,2.38125 -0.81833,2.20334 -1.15383,3.00613 -1.16539,2.7885 -0.006,-0.12031 -0.32408,0.15261 -0.70599,0.60649 -0.38191,0.45387 -0.62099,0.89862 -0.53128,0.98832 0.14995,0.14996 -0.39936,0.46615 -4.1983,2.41655 -1.59634,0.81957 -4.89564,1.05258 -6.61458,0.46715 z m 7.67291,-1.67372 c 1.52266,-0.80613 3.98088,-3.42572 4.6613,-4.9673 0.34866,-0.78995 0.63291,-2.07989 0.70555,-3.20185 0.11452,-1.76867 0.0871,-1.88797 -0.46704,-2.03288 -0.54469,-0.14244 -0.57477,-0.25515 -0.40247,-1.50794 0.16535,-1.20224 0.10712,-1.46813 -0.51957,-2.37244 -1.47062,-2.12212 -4.2583,-4.13763 -6.24351,-4.51412 -1.74763,-0.33143 -5.7716,0.45824 -7.70934,1.51289 -3.3729,1.83576 -5.48796,6.84086 -4.25194,10.06186 0.10657,0.27772 0.0572,0.35688 -0.14478,0.23206 -0.39101,-0.24166 -0.0866,0.62103 0.38898,1.10247 0.18386,0.18611 0.26085,0.5433 0.17109,0.79375 -0.0898,0.25045 -0.0654,0.36659 0.0542,0.2581 0.11955,-0.1085 0.4432,0.30822 0.71921,0.92604 1.35688,3.03721 4.46697,4.48511 9.33419,4.34553 2.08313,-0.0597 2.87091,-0.19503 3.70416,-0.63617 z m -3.99342,-6.25912 c -0.0772,-0.20117 0.0343,-1.03461 0.24777,-1.85208 0.34082,-1.30515 0.23012,-1.95506 -0.21134,-1.24076 -0.0835,0.13506 -0.7751,0.21377 -1.53697,0.17491 -0.76186,-0.0388 -1.57021,0.0209 -1.79634,0.13286 -0.22612,0.11193 -0.5778,0.10049 -0.78152,-0.0254 -0.31513,-0.19476 -0.31623,-0.33011 -0.007,-0.90718 0.19965,-0.37305 0.27319,-0.76774 0.16343,-0.8771 -0.18816,-0.18748 -0.66861,0.29985 -1.40334,1.42344 -0.30788,0.47082 -0.31524,0.46916 -0.15448,-0.0348 0.0928,-0.29104 0.31865,-0.75119 0.50177,-1.02256 0.18313,-0.27137 0.27429,-0.64628 0.20259,-0.83313 -0.23656,-0.61646 0.40506,-0.68766 0.98356,-0.10916 0.48482,0.48482 0.52353,0.66559 0.26433,1.23447 -0.16702,0.36656 -0.25127,0.71887 -0.18723,0.7829 0.2424,0.24241 1.22304,-0.59652 1.51159,-1.29316 0.31361,-0.75711 1.08523,-1.17364 1.59292,-0.85987 0.18422,0.11385 0.23374,0.56852 0.13153,1.2077 -0.0983,0.61493 -0.0583,1.0251 0.10004,1.0251 0.46935,0 1.56613,-1.95227 1.74984,-3.11472 0.0982,-0.62168 0.27382,-1.18917 0.39018,-1.26108 0.44246,-0.27346 0.49414,0.3931 0.11402,1.47048 -0.4998,1.41659 -0.52968,1.31782 0.39867,1.31782 0.43656,0 0.79375,-0.10932 0.79375,-0.24294 0,-0.13362 0.0723,-0.43128 0.1606,-0.66146 0.11708,-0.3051 -0.008,-0.42614 -0.46302,-0.44666 -0.60044,-0.0271 -0.59657,-0.0388 0.10398,-0.31566 0.40019,-0.15813 0.72761,-0.44312 0.72761,-0.63331 0,-0.19019 0.17859,-0.3458 0.39687,-0.3458 0.21828,0 0.39688,0.17859 0.39688,0.39687 0,0.21829 0.17156,0.39688 0.38126,0.39688 0.20969,0 0.46551,0.13632 0.56849,0.30294 0.12862,0.20813 -0.0257,0.26224 -0.49311,0.17289 -0.59717,-0.11415 -0.73136,0.004 -1.09766,0.96268 -0.47823,1.25223 -0.53539,2.00107 -0.15273,2.00107 0.45345,0 1.32291,-1.03309 1.32291,-1.57188 0,-0.28246 0.13513,-0.59707 0.30028,-0.69913 0.21696,-0.13409 0.24917,0.15522 0.11608,1.04271 -0.10883,0.72575 -0.0818,1.2283 0.0662,1.2283 0.32702,0 1.10497,-1.19326 1.10497,-1.69487 0,-0.21481 0.13765,-0.47563 0.30588,-0.57961 0.21989,-0.13589 0.25831,0.0643 0.13667,0.71199 -0.38232,2.03591 -0.92227,4.24707 -1.07419,4.39899 -0.36816,0.36817 -0.44277,-0.20668 -0.16211,-1.249 0.16465,-0.61146 0.23812,-1.173 0.16325,-1.24786 -0.0749,-0.0749 -0.73006,-0.13611 -1.456,-0.13611 -1.35364,0 -1.76049,-0.31722 -1.44876,-1.12957 0.16128,-0.42029 -0.53699,-0.54361 -1.33789,-0.23627 -0.43151,0.16558 -0.59168,0.89773 -0.1964,0.89773 0.12216,0 0.3599,0.30241 0.52831,0.67202 0.37599,0.82521 -0.1492,2.3042 -0.97521,2.74627 -0.6934,0.37109 -0.82142,0.36076 -0.99051,-0.0799 z m 1.42575,-1.30235 c 0.26539,-0.54434 0.2731,-0.83314 0.0342,-1.27954 -0.3726,-0.69621 -0.62484,-0.36758 -0.91776,1.19572 -0.15257,0.81426 -0.11658,1.00146 0.17427,0.9065 0.20161,-0.0658 0.52079,-0.43603 0.7093,-0.82268 z m -2.43268,-2.70982 c 0.093,-0.37058 0.0856,-0.75735 -0.0166,-0.85948 -0.2198,-0.2198 -0.93618,0.68848 -0.93618,1.18695 0,0.62828 0.7802,0.36012 0.95277,-0.32747 z m -7.55805,1.74951 c -1.0437,-1.95018 1.05065,-6.06407 2.75434,-5.4103 0.56157,0.2155 0.81276,1.33736 0.4085,1.82446 -0.53855,0.64892 -0.76663,0.44891 -0.60735,-0.5326 0.11488,-0.70791 0.0583,-0.92604 -0.24021,-0.92604 -0.60758,0 -1.26695,0.88857 -1.68149,2.26599 -0.48552,1.61325 -0.47665,2.09599 0.0482,2.6208 0.3882,0.3882 0.48365,0.38935 1.05834,0.0128 0.65897,-0.43178 0.86388,-0.21057 0.31415,0.33915 -0.50309,0.5031 -1.74402,0.38575 -2.05444,-0.19427 z m 6.58323,-11.0327 c 0.22732,-0.20042 -1.18982,-0.0504 -1.69774,0.17974 -0.36881,0.16709 -0.20844,0.19091 0.52916,0.0786 0.58209,-0.0886 1.10794,-0.20489 1.16858,-0.25834 z m 1.27331,-0.25705 c -0.0879,-0.0879 -0.31613,-0.0973 -0.50712,-0.0209 -0.21107,0.0845 -0.14837,0.14716 0.15985,0.15985 0.27891,0.0115 0.43518,-0.051 0.34727,-0.13896 z"
       id="path98" />
  </g>
</svg>
